# xmcd
# 
# Track frame offsets:
#     150
#     14947
#     24702
#     35572
#     46072
#     56037
#     68267
#     81952
#     96925
#     110472
#     123742
# 
# Disc length: 1833
# 
# Revision: 4
# Processed by: cddbd v1.5.2PL0 Copyright (c) Steve Scherf et al.
# Submitted via: BonkEnc v1.0.8
# 
DISCID=9507270b
DTITLE=Otis Redding - The Immortal
DYEAR=1968
DGENRE=R&B
TTITLE0=I've Got Dreams To Remember
TTITLE1=You Made A Man Out Of Me
TTITLE2=Nobody's Fault But Mine
TTITLE3=Hard To Handle
TTITLE4=Thousand Miles Away
TTITLE5=The Happy Song ( Dum-Dum-De-De-De-Dum-Dum)
TTITLE6=Think About It
TTITLE7=A Waste Of Time
TTITLE8=Champagne And Wine
TTITLE9=A Fool For You
TTITLE10=Amen
EXTD=YEAR: 1968
EXTT0=
EXTT1=
EXTT2=
EXTT3=
EXTT4=
EXTT5=
EXTT6=
EXTT7=
EXTT8=
EXTT9=
EXTT10=
PLAYORDER=
